<?xml version="1.0" encoding="UTF-8"?>
<svg id="Vrstva_1" data-name="Vrstva 1" xmlns="http://www.w3.org/2000/svg" viewBox="0 0 708.29 349.74">
  <defs>
    <style>
      .cls-1, .cls-2 {
        fill: #fff;
      }

      .cls-3, .cls-2 {
        stroke: #000;
        stroke-miterlimit: 10;
      }

      .cls-2 {
        stroke-width: 7px;
      }
    </style>
  </defs>
  <g>
    <rect class="cls-3" x=".5" y="213.61" width="707.29" height="20.3" rx="5.82" ry="5.82"/>
    <path class="cls-3" d="M196.52.5h315.27c25.27,0,45.8,20.53,45.8,45.8v175.06H150.72V46.3c0-25.27,20.53-45.8,45.8-45.8Z"/>
  </g>
  <g>
    <path class="cls-2" d="M295.15,346.24l-75.25-6.13c-12.2,0-22.09-12.35-22.09-27.59l-2.77-23.83c-2.49-21.37-1.54-43.14,2.77-64.05h0c0-15.24,9.89-27.59,22.09-27.59h84.25c12.2,0,22.09,12.35,22.09,27.59h0c.54,21.73-.91,43.46-4.32,64.77l-4.68,29.23c0,15.24-9.89,27.59-22.09,27.59Z"/>
    <path class="cls-2" d="M413.13,346.24l75.25-6.13c12.2,0,22.09-12.35,22.09-27.59l2.77-23.83c2.49-21.37,1.54-43.14-2.77-64.05h0c0-15.24-9.89-27.59-22.09-27.59h-84.25c-12.2,0-22.09,12.35-22.09,27.59h0c-.54,21.73.91,43.46,4.32,64.77l4.68,29.23c0,15.24,9.89,27.59,22.09,27.59Z"/>
  </g>
  <g>
    <ellipse class="cls-3" cx="263.46" cy="279.16" rx="28.13" ry="30.17"/>
    <ellipse class="cls-3" cx="444.82" cy="278.08" rx="28.13" ry="30.17"/>
  </g>
  <path class="cls-1" d="M373.01,83.85c-3.28-1.16-3.74-1.98-4.38-5.51.08-4.46,3.28-4.96,5.01-5.84,1.73-.88,1.4-2.67,1.4-2.67l-2.2-7.98s-.88-1.93-3.44-1.21c-2.4.44-4.57.06-6.3-2.86-1.98-3.96.22-5.62,1.27-6.88,1.43-2.7.11-3.41.11-3.41,0,0-4.74-4.74-6.06-5.95-1.87-.88-1.98-.33-3.63.72-1.38,1.6-4.63,2.31-7.32.33-2.48-2.48-2.2-4.24-1.82-6.77-.11-2.48-1.54-2.64-1.54-2.64,0,0-5.45-1.76-7.87-2.04-2.42-.28-3.14,2.64-3.14,2.64,0,0-.94,3.74-5.4,3.8-4.41-.5-5.18-3.69-5.67-5.01-.55-1.71-2.42-1.49-2.42-1.49l-4.57,1.05s-1.4.41-3.58,1.1c-2.06,1.02-1.51,3.19-1.51,3.19,0,0,1.24,3.19-1.62,5.95-3.58,2.89-6.33.85-7.85-.28-1.57-1.87-3.58-.41-3.58-.41,0,0-4.85,4.76-5.75,5.62-.91.85-.74,2.67.06,3.52.85.52,3.14,2.97,1.29,7.19-2.15,2.75-3.94,2.84-5.97,2.7-3-1.13-3.99,1.54-3.99,1.54,0,0-1.4,5.04-1.93,7.27-.52,2.23,1.32,3.33,2.62,3.55,1.29.22,3.96,2.34,3.8,5.7-.52,3.28-2.15,4.41-4.49,5.12s-2.01,2.95-2.01,2.95c0,0,1.43,5.64,2.15,7.98,1.1,1.95,3.08,1.46,3.08,1.46,0,0,4.16-1.13,6.41,2.06,1.93,3.03.85,6.06-.72,7.3-1.71,1.95-.39,3.63-.39,3.63,0,0,5.04,5.34,5.75,5.75.72.41,2.04,1.05,3.44-.06,2.73-2.81,4.74-1.95,6.94-1.38,2.92,1.9,2.97,3.58,3,5.89-1.27,3.08,1.35,4.02,1.35,4.02,0,0,6.58,1.87,7.76,2.09s2.64-.44,3.06-2.31c1.51-3.91,3.85-3.91,6.14-4.05,4.16.99,4.32,2.97,4.98,4.9,1.05,1.9,2.95,1.49,2.95,1.49,0,0,5.4-1.18,6.33-1.71.47-.17,3.33-.03,2.86-3.55-.69-2.95.19-4.32,1.87-6.14,4.05-2.7,6.72-.28,8.12.88,1.79,1.16,3.11,0,3.11,0,0,0,4.29-4.13,5.73-5.78,1.32-1.84,0-3.5-.44-3.8-.41-.52-2.95-2.78-.74-6.88,2.4-3.22,4.49-2.62,6.36-2.45,2.42.58,3.33-1.38,3.33-1.38,0,0,1.84-6.66,2.06-7.71.22-1.05,0-2.67-2.01-3.25ZM330.21,115.6c-22.52,1.42-41.09-17.15-39.67-39.67,1.17-18.58,16.25-33.65,34.82-34.82,22.52-1.42,41.09,17.15,39.67,39.67-1.17,18.58-16.25,33.65-34.82,34.82Z"/>
  <path class="cls-1" d="M410.38,132.35c.17-1.28.83-2.44,1.83-3.25l1.13-.91c1.73-1.4,2.34-3.76,1.51-5.82-.72-1.78-2.38-2.99-4.28-3.15l-2.95-.24c-1.45-.12-2.78-.85-3.65-2.01l-2.66-3.56c-.71-.95-1.06-2.12-1-3.31l.06-1.09c.12-2.04-1.01-3.95-2.85-4.84l-1.34-.64c-1.76-.85-3.86-.6-5.38.63l-1.92,1.56c-.95.77-2.14,1.17-3.36,1.13l-3.95-.14c-1.37-.05-2.65-.65-3.57-1.66l-1.06-1.17c-1.38-1.53-3.56-2.06-5.49-1.35l-.37.14c-1.83.67-3.11,2.34-3.29,4.29l-.26,2.91c-.12,1.31-.74,2.52-1.74,3.38l-2.95,2.53c-1.01.87-2.33,1.3-3.67,1.2l-1.87-.14c-2.08-.16-4.05.99-4.94,2.88l-.46.96c-.88,1.85-.55,4.05.83,5.57l1.53,1.68c.93,1.02,1.4,2.37,1.3,3.74l-.25,3.67c-.1,1.43-.8,2.76-1.93,3.64l-1.37,1.07c-1.75,1.37-2.4,3.73-1.59,5.81l.1.25c.77,1.98,2.7,3.27,4.83,3.22l1.95-.05c1.6-.04,3.11.68,4.1,1.94l2.32,2.96c.75.96,1.13,2.17,1.07,3.39l-.11,2.03c-.11,2.11,1.09,4.06,3.03,4.9l1.19.52c1.78.78,3.84.47,5.32-.8l1.86-1.6c1.05-.9,2.43-1.34,3.81-1.19l4.25.44c1.28.13,2.47.75,3.31,1.72l1.24,1.43c1.36,1.58,3.56,2.16,5.52,1.46l.09-.03c1.92-.69,3.25-2.46,3.35-4.51l.08-1.66c.07-1.34.66-2.59,1.66-3.49l4.12-3.72c.98-.88,2.26-1.35,3.58-1.3l.93.04c2.07.08,3.97-1.11,4.81-3l.49-1.11c.81-1.82.47-3.95-.87-5.43l-1.41-1.56c-1-1.1-1.45-2.59-1.25-4.07l.58-4.28ZM390.04,154.85c-11.23,4.01-23.58-1.85-27.58-13.07-4.01-11.23,1.85-23.58,13.07-27.58,11.23-4.01,23.58,1.85,27.58,13.07,4.01,11.23-1.85,23.58-13.07,27.58Z"/>
</svg>